# xmcd CD database file
#
# Track frame offsets:
#	150
#	20797
#	41394
#	57045
#	76342
#	102457
#	115452
#	130092
#	144068
#	156189
#	165718
#	183690
#	200498
#	229055
#	245586
#	266864
#	282509
#	299030
#	318156
#	329889
#
# Disc length: 4540 seconds
#
# Revision: 0
# Processed by: cddbd v1.5.2PL0 Copyright (c) Steve Scherf et al.
# Submitted via: CDex 1.70beta2
#
DISCID=3511ba14
DTITLE=Ketil Bjørnstad - The World I Used to Know
DYEAR=2019
DGENRE=Jazz
TTITLE0=Hymn for the Travelling Soul
TTITLE1=The World I Used to Know
TTITLE2=The Elisabethan Serenade
TTITLE3=Sett deg ned
TTITLE4=The Journey
TTITLE5=Der ute - der inne
TTITLE6=Maria Wiegenlied
TTITLE7=Both Sides Now
TTITLE8=La fille aux cheveux de lin
TTITLE9=Anna Lovinda
TTITLE10=Jazz Rhapsody
TTITLE11=Transparence
TTITLE12=The Road to Mozart
TTITLE13=In Your Quiet Place
TTITLE14=By the Fjord
TTITLE15=Schubert Said - Again
TTITLE16=Blue Man
TTITLE17=Drømmen om havet
TTITLE18=I Say a Little Prayer
TTITLE19=Here Comes the Sun
EXTD=YEAR: 2019
EXTT0=
EXTT1=
EXTT2=
EXTT3=
EXTT4=
EXTT5=
EXTT6=
EXTT7=
EXTT8=
EXTT9=
EXTT10=
EXTT11=
EXTT12=
EXTT13=
EXTT14=
EXTT15=
EXTT16=
EXTT17=
EXTT18=
EXTT19=
PLAYORDER=
